<svg width="33" height="32" viewBox="0 0 33 32" fill="none" xmlns="http://www.w3.org/2000/svg">
<path d="M17.6606 0.00196861C18.8282 -0.00251169 19.9958 0.00922274 21.163 0.0371683L21.4734 0.0483681C21.8318 0.0611679 22.1854 0.0771677 22.6126 0.0963674C24.3149 0.176366 25.4765 0.445163 26.4957 0.840358C27.5517 1.24675 28.4413 1.79715 29.3309 2.68673C30.1443 3.48609 30.7738 4.45303 31.1757 5.5203C31.5709 6.53948 31.8397 7.70267 31.9197 9.40505C31.9389 9.83064 31.9549 10.1858 31.9677 10.5442L31.9773 10.8546C32.0057 12.0213 32.0179 13.1884 32.0141 14.3554L32.0157 15.549V17.6449C32.0196 18.8125 32.0073 19.9801 31.9789 21.1473L31.9693 21.4577C31.9565 21.8161 31.9405 22.1697 31.9213 22.5969C31.8413 24.2993 31.5693 25.4608 31.1757 26.48C30.7751 27.5484 30.1454 28.5162 29.3309 29.3152C28.5308 30.1285 27.5634 30.758 26.4957 31.16C25.4765 31.5552 24.3149 31.824 22.6126 31.904C22.1854 31.9232 21.8318 31.9392 21.4734 31.952L21.163 31.9616C19.9958 31.99 18.8282 32.0023 17.6606 31.9984L16.467 32H14.3727C13.2051 32.0039 12.0375 31.9916 10.8703 31.9632L10.5599 31.9536C10.1801 31.9398 9.80037 31.9238 9.42074 31.9056C7.71836 31.8256 6.55678 31.5536 5.53599 31.16C4.4683 30.7589 3.5012 30.1293 2.70243 29.3152C1.88811 28.5157 1.258 27.5481 0.856049 26.48C0.460854 25.4608 0.192058 24.2993 0.112059 22.5969C0.0942395 22.2172 0.0782395 21.8375 0.0640593 21.4577L0.0560596 21.1473C0.0265617 19.9801 0.0132271 18.8125 0.0160599 17.6449V14.3554C0.0115944 13.1884 0.0233289 12.0213 0.0512596 10.8546L0.0624594 10.5442C0.0752592 10.1858 0.091259 9.83064 0.110459 9.40505C0.190458 7.70107 0.459254 6.54108 0.854449 5.5203C1.25664 4.4525 1.88798 3.48584 2.70403 2.68833C3.50225 1.87355 4.46874 1.24287 5.53599 0.840358C6.55678 0.445163 7.71676 0.176366 9.42074 0.0963674L10.5599 0.0483681L10.8703 0.0403684C12.037 0.0108853 13.204 -0.00244933 14.3711 0.000368744L17.6606 0.00196861ZM16.0159 8.00187C14.9559 7.98687 13.9035 8.1827 12.9199 8.57797C11.9362 8.97323 11.041 9.56005 10.2861 10.3043C9.53121 11.0486 8.93179 11.9355 8.52265 12.9134C8.11351 13.8914 7.90282 14.9409 7.90282 16.001C7.90282 17.061 8.11351 18.1106 8.52265 19.0885C8.93179 20.0665 9.53121 20.9533 10.2861 21.6976C11.041 22.4419 11.9362 23.0287 12.9199 23.424C13.9035 23.8192 14.9559 24.0151 16.0159 24.0001C18.1376 24.0001 20.1724 23.1572 21.6726 21.6569C23.1729 20.1567 24.0158 18.1219 24.0158 16.0002C24.0158 13.8785 23.1729 11.8437 21.6726 10.3434C20.1724 8.84311 18.1376 8.00187 16.0159 8.00187ZM16.0159 11.2018C16.6535 11.1901 17.287 11.3055 17.8795 11.5414C18.472 11.7772 19.0116 12.1288 19.4667 12.5755C19.9218 13.0222 20.2833 13.5551 20.5301 14.1431C20.7769 14.7311 20.9041 15.3624 20.9042 16.0001C20.9043 16.6379 20.7774 17.2692 20.5307 17.8573C20.2841 18.4454 19.9228 18.9784 19.4678 19.4253C19.0128 19.8722 18.4734 20.2239 17.881 20.46C17.2886 20.696 16.6551 20.8116 16.0175 20.8001C14.7444 20.8001 13.5235 20.2944 12.6234 19.3942C11.7232 18.4941 11.2175 17.2732 11.2175 16.0002C11.2175 14.7271 11.7232 13.5063 12.6234 12.6061C13.5235 11.7059 14.7444 11.2002 16.0175 11.2002L16.0159 11.2018ZM24.4157 5.6019C23.8996 5.62256 23.4114 5.84213 23.0535 6.21464C22.6956 6.58715 22.4958 7.08369 22.4958 7.60027C22.4958 8.11685 22.6956 8.61339 23.0535 8.9859C23.4114 9.35841 23.8996 9.57799 24.4157 9.59865C24.9462 9.59865 25.4549 9.38793 25.8299 9.01287C26.205 8.6378 26.4157 8.1291 26.4157 7.59867C26.4157 7.06824 26.205 6.55954 25.8299 6.18448C25.4549 5.80941 24.9462 5.5987 24.4157 5.5987V5.6019Z" fill="#01126E"/>
</svg>
