<svg width="103" height="103" viewBox="0 0 103 103" fill="none" xmlns="http://www.w3.org/2000/svg">
<circle cx="51.5" cy="51.5" r="51.5" fill="#283EB4"/>
<path d="M33.1111 66.5588V64.657C33.1111 63.6718 33.3689 62.7916 33.8844 62.0164C34.4015 61.2397 35.1296 60.6118 36.0689 60.1328C37.8718 59.208 39.8733 58.4637 42.0733 57.9001C44.2733 57.3365 46.4711 57.0546 48.6666 57.0546C50.8637 57.0546 53.0622 57.3365 55.2622 57.9001C57.4622 58.4637 59.4637 59.208 61.2666 60.1328C62.2059 60.6118 62.9333 61.2389 63.4489 62.0141C63.9644 62.7908 64.2222 63.6718 64.2222 64.657V66.5588C64.2222 67.0846 64.0518 67.5206 63.7111 67.8666C63.3703 68.2142 62.9429 68.388 62.4289 68.388H34.9066C34.3911 68.388 33.9629 68.2142 33.6222 67.8666C33.2815 67.5191 33.1111 67.0831 33.1111 66.5588ZM35.3333 66.1213H62V64.657C62 64.0375 61.8274 63.529 61.4822 63.1316C61.1355 62.7341 60.7103 62.3972 60.2066 62.1206C58.8155 61.3817 57.074 60.7304 54.9822 60.1668C52.8889 59.6031 50.7837 59.3213 48.6666 59.3213C46.5511 59.3213 44.4466 59.6031 42.3533 60.1668C40.2615 60.7304 38.5207 61.3817 37.1311 62.1206C36.6259 62.3972 36.2 62.7341 35.8533 63.1316C35.5066 63.5305 35.3333 64.039 35.3333 64.657V66.1213ZM48.6666 52C46.7644 52 45.1777 51.3517 43.9066 50.0552C42.6355 48.7586 42 47.0526 42 44.937H41.5311C41.2837 44.937 41.0792 44.8547 40.9178 44.69C40.7563 44.5253 40.6755 44.3175 40.6755 44.0666C40.6755 43.8128 40.7563 43.6042 40.9178 43.441C41.0792 43.2778 41.2837 43.1947 41.5311 43.1917H42C42.0577 42.0448 42.2948 41.0021 42.7111 40.0637C43.1259 39.1253 43.8007 38.2307 44.7355 37.38V39.5333C44.7355 39.7857 44.8163 39.9934 44.9777 40.1566C45.1378 40.3229 45.3422 40.406 45.5911 40.406C45.8385 40.406 46.0429 40.3229 46.2044 40.1566C46.3644 39.9934 46.4444 39.7857 46.4444 39.5333V36.5594C46.7496 36.4461 47.0948 36.3464 47.48 36.2602C47.8652 36.1756 48.2607 36.1333 48.6666 36.1333C49.0726 36.1333 49.4689 36.1756 49.8555 36.2602C50.2407 36.3464 50.5852 36.4461 50.8889 36.5594V39.5333C50.8889 39.7857 50.9703 39.9942 51.1333 40.1589C51.2933 40.3221 51.497 40.4037 51.7444 40.4037C51.9918 40.4037 52.1963 40.3213 52.3577 40.1566C52.5192 39.9934 52.6 39.7857 52.6 39.5333V37.38C53.5629 38.2307 54.2444 39.1253 54.6444 40.0637C55.0474 41.0021 55.277 42.0448 55.3333 43.1917H55.8044C56.0518 43.1917 56.2563 43.2748 56.4177 43.441C56.5792 43.6073 56.66 43.8158 56.66 44.0666C56.66 44.319 56.5785 44.5275 56.4155 44.6922C56.2526 44.8569 56.0489 44.9385 55.8044 44.937H55.3333C55.3333 47.0526 54.6985 48.7586 53.4289 50.0552C52.1577 51.3517 50.5703 52 48.6666 52ZM48.6666 49.7333C49.9466 49.7333 51.0074 49.3034 51.8489 48.4436C52.6903 47.5853 53.1111 46.5041 53.1111 45.2H44.2222C44.2222 46.5041 44.6437 47.5853 45.4866 48.4436C46.3281 49.3034 47.3881 49.7333 48.6666 49.7333ZM65.3377 55.4952L65.2578 54.6565C64.9778 54.5809 64.6866 54.4601 64.3844 54.2938C64.0822 54.1276 63.8229 53.9349 63.6066 53.7158L62.8133 54.074C62.6103 54.1495 62.4177 54.1571 62.2355 54.0966C62.0503 54.0362 61.8977 53.9025 61.7777 53.6954L61.6844 53.5141C61.5659 53.3177 61.5266 53.1159 61.5666 52.9089C61.6081 52.7034 61.7215 52.5349 61.9066 52.4034L62.5911 51.8934C62.5333 51.7227 62.5044 51.5663 62.5044 51.4242V50.504C62.5044 50.3755 62.5333 50.2116 62.5911 50.0121L61.9066 49.5021C61.7215 49.3706 61.6081 49.2021 61.5666 48.9966C61.5252 48.7896 61.5644 48.5871 61.6844 48.3892L61.7777 48.2101C61.8977 48.0046 62.0496 47.8709 62.2333 47.8089C62.417 47.7485 62.6096 47.756 62.8111 47.8316L63.6066 48.1897C63.8126 47.9797 64.0696 47.7893 64.3777 47.6185C64.6844 47.4462 64.9778 47.3223 65.2578 47.2468L65.3377 46.4104C65.3837 46.2049 65.4852 46.0235 65.6422 45.8664C65.7992 45.7122 65.9785 45.6352 66.18 45.6352H66.3689C66.5703 45.6352 66.7496 45.713 66.9066 45.8686C67.0637 46.0243 67.1652 46.2056 67.2111 46.4126L67.2911 47.2468C67.5711 47.3223 67.8644 47.4462 68.1711 47.6185C68.4792 47.7893 68.7355 47.9797 68.94 48.1897L69.7355 47.8316C69.9385 47.756 70.1311 47.7485 70.3133 47.8089C70.4985 47.8693 70.6511 48.0031 70.7711 48.2101L70.8644 48.3914C70.9829 48.5879 71.0222 48.7896 70.9822 48.9966C70.9407 49.2021 70.8274 49.3706 70.6422 49.5021L69.9578 50.0121C70.0155 50.2116 70.0444 50.3755 70.0444 50.504V51.4242C70.0444 51.5663 70.0155 51.7227 69.9578 51.8934L70.6422 52.4034C70.8274 52.5349 70.9407 52.7034 70.9822 52.9089C71.0237 53.1159 70.9844 53.3184 70.8644 53.5164L70.7711 53.6954C70.6511 53.9009 70.4992 54.0347 70.3155 54.0966C70.1318 54.1571 69.9392 54.1495 69.7377 54.074L68.94 53.7158C68.7266 53.9334 68.4681 54.1261 68.1644 54.2938C67.8607 54.4616 67.5696 54.5825 67.2911 54.6565L67.2111 55.4952C67.1652 55.7007 67.0637 55.882 66.9066 56.0392C66.7496 56.1933 66.5703 56.2704 66.3689 56.2704H66.18C65.9785 56.2704 65.7992 56.1925 65.6422 56.0369C65.4852 55.8813 65.3837 55.7022 65.3377 55.4952ZM66.2733 52.9996C66.8318 52.9996 67.3059 52.8009 67.6955 52.4034C68.0866 52.006 68.2822 51.5225 68.2822 50.9528C68.2822 50.3831 68.0874 49.8995 67.6978 49.5021C67.3066 49.1032 66.8326 48.9037 66.2755 48.9037C65.717 48.9037 65.2429 49.1032 64.8533 49.5021C64.4622 49.8995 64.2666 50.3831 64.2666 50.9528C64.2666 51.5225 64.4615 52.006 64.8511 52.4034C65.2422 52.8024 65.7163 53.0018 66.2733 53.0018" fill="white"/>
</svg>
